<?xml version="1.0" standalone="no"?>
<!DOCTYPE svg PUBLIC "-//W3C//DTD SVG 20010904//EN"
 "http://www.w3.org/TR/2001/REC-SVG-20010904/DTD/svg10.dtd">
<svg version="1.0" xmlns="http://www.w3.org/2000/svg"
 width="500.000000pt" height="500.000000pt" viewBox="0 0 500.000000 500.000000"
 preserveAspectRatio="xMidYMid meet">

<g transform="translate(0.000000,500.000000) scale(0.100000,-0.100000)"
fill="#000000" stroke="none">
<path d="M2786 4539 c-16 -10 -17 -19 -11 -75 6 -54 3 -71 -14 -108 -38 -78
-46 -81 -142 -54 -71 19 -110 22 -244 22 -137 1 -171 -3 -238 -22 -99 -28
-142 -50 -191 -98 -50 -49 -76 -106 -76 -172 0 -68 18 -111 64 -149 l37 -30
-40 -58 c-74 -105 -121 -259 -121 -396 l0 -67 -90 -67 c-158 -118 -285 -271
-371 -451 -64 -131 -91 -211 -77 -220 16 -10 -21 -22 -137 -46 -81 -16 -137
-20 -297 -19 l-198 1 0 -59 c0 -32 11 -103 25 -157 l26 -99 -38 -33 c-43 -39
-124 -81 -201 -106 -54 -18 -77 -44 -68 -74 7 -21 115 -94 189 -126 49 -22
134 -50 233 -75 l41 -11 -53 -170 c-30 -94 -54 -185 -54 -203 0 -50 43 -129
94 -174 36 -31 69 -48 144 -72 210 -66 360 -111 426 -126 62 -14 77 -23 132
-75 118 -110 272 -213 405 -270 405 -174 790 -170 1222 13 110 46 285 167 398
274 38 37 58 47 125 63 125 30 443 138 490 165 71 42 124 129 124 204 0 36
-29 151 -73 293 l-25 78 42 10 c166 42 298 96 394 162 30 21 42 36 42 53 0 30
-24 46 -112 74 -85 28 -212 115 -203 139 12 31 55 227 55 252 0 51 -7 53 -152
47 -147 -6 -264 4 -384 33 -78 18 -80 18 -110 -1 l-31 -19 -7 -129 c-6 -118
-28 -301 -42 -343 -6 -21 -154 -70 -294 -99 -52 -10 -105 -21 -117 -24 l-23
-5 0 268 0 269 43 -8 c111 -22 256 -5 352 41 87 42 193 132 217 186 25 59 21
104 -13 123 -38 21 -70 8 -151 -63 -125 -109 -230 -145 -365 -126 -41 5 -76
10 -79 10 -2 0 -4 133 -4 295 0 168 4 295 9 295 5 0 35 -20 68 -45 105 -80
247 -255 302 -373 14 -29 29 -51 33 -50 5 2 18 17 28 34 l19 30 -52 93 c-35
62 -83 126 -147 195 -97 104 -106 112 -204 180 l-56 39 0 66 0 66 71 -3 c63
-3 75 -1 111 23 49 32 72 83 65 142 -8 70 -62 149 -192 276 -134 133 -285 241
-428 306 l-87 40 36 48 c20 26 40 58 45 71 23 59 1 149 -40 172 -24 12 -31 12
-55 -1z m-156 -333 c121 -34 353 -147 447 -218 70 -53 178 -152 236 -214 26
-29 27 -32 10 -45 -16 -12 -17 -12 -6 2 7 9 10 19 6 22 -3 4 -13 -2 -21 -14
-8 -11 -23 -19 -35 -18 -12 1 -35 -3 -52 -10 -32 -13 -83 -8 -125 13 -14 7
-54 19 -90 25 -222 42 -505 131 -674 211 -122 59 -136 61 -136 22 0 -36 16
-50 105 -95 39 -20 65 -36 59 -37 -11 0 -147 37 -296 81 -74 21 -98 45 -98 96
0 96 78 166 224 199 100 23 328 12 446 -20z m-436 -422 c67 -20 157 -55 201
-79 44 -23 101 -50 127 -60 26 -10 45 -21 43 -25 -3 -5 -26 -19 -53 -31 -78
-38 -164 -133 -186 -207 l-7 -22 33 20 c18 10 66 33 106 49 39 16 124 62 187
100 118 72 152 87 120 51 -10 -11 -16 -20 -14 -21 2 0 12 -2 22 -4 15 -3 16
-1 5 13 -7 9 -1 7 13 -6 14 -12 29 -19 32 -15 4 3 7 4 7 0 0 -3 -18 -24 -40
-46 -46 -45 -48 -53 -20 -81 15 -15 32 -19 70 -19 43 1 54 -2 76 -26 19 -21
31 -26 50 -21 13 3 36 8 52 11 26 5 26 4 2 -4 -14 -5 -20 -9 -13 -10 13 -1 12
-24 -4 -42 -6 -8 -9 -30 -6 -49 3 -19 5 -47 6 -62 0 -29 17 -40 17 -12 0 8 5
12 10 9 12 -7 -5 -43 -29 -63 -14 -11 -14 -11 2 -6 9 3 17 1 17 -5 0 -6 -4
-11 -10 -11 -5 0 -10 -5 -10 -11 0 -6 8 -8 18 -5 9 3 24 1 32 -5 13 -9 12 -10
-2 -5 -14 4 -18 -1 -18 -24 0 -16 -5 -32 -11 -35 -6 -4 -8 -13 -5 -21 3 -8 1
-14 -4 -14 -5 0 -11 12 -13 28 -3 22 -4 20 -6 -10 -1 -28 3 -38 18 -43 10 -3
24 -19 31 -35 10 -24 9 -34 -6 -59 -10 -17 -23 -31 -30 -31 -12 0 -29 -224
-18 -242 4 -6 3 -8 -3 -5 -6 4 -13 -12 -16 -41 -3 -26 -8 -56 -11 -67 -4 -11
1 -6 9 10 15 30 15 29 9 -25 -3 -30 -7 -84 -8 -119 l-3 -65 -84 -22 c-180 -48
-308 -101 -414 -169 -53 -34 -199 -165 -192 -172 10 -9 258 70 337 108 95 45
237 130 338 202 73 51 79 54 79 33 0 -8 -3 -14 -6 -13 -3 1 -16 -8 -28 -20
-13 -13 -20 -23 -17 -23 4 0 1 -7 -6 -15 -6 -8 -8 -20 -4 -26 4 -7 3 -9 -2 -6
-6 3 -16 -4 -23 -15 -11 -18 -11 -20 4 -15 9 4 13 3 10 -2 -3 -5 -2 -12 2 -14
5 -3 7 -52 5 -110 l-3 -105 -87 -9 c-154 -14 -622 -8 -787 11 -82 9 -158 19
-168 22 -17 5 -18 44 -15 802 3 739 5 801 22 851 36 109 112 241 139 241 5 0
64 -16 131 -36z m-394 -807 l0 -253 -62 -31 c-130 -64 -188 -139 -195 -253 -6
-83 18 -142 79 -195 l44 -38 -23 -23 c-30 -30 -29 -55 2 -88 28 -30 82 -35
128 -12 l27 15 0 -78 0 -78 -107 22 c-115 23 -291 71 -313 85 -20 12 -39 202
-40 388 0 129 3 162 21 215 42 126 155 312 254 416 55 59 170 161 181 161 2 0
4 -114 4 -253z m0 -548 c0 -98 2 -96 -57 -50 -44 34 -43 64 3 107 19 19 40 34
45 34 5 0 9 -41 9 -91z m2144 26 c47 -9 137 -15 227 -15 113 0 149 -3 149 -12
0 -7 -13 -62 -29 -121 l-28 -108 59 -57 c61 -59 149 -117 194 -128 14 -4 22
-10 17 -15 -29 -28 -338 -118 -353 -102 -5 4 -10 17 -12 27 -3 17 9 22 82 38
130 29 161 38 155 47 -3 5 -38 1 -77 -9 -40 -10 -96 -21 -124 -25 l-52 -7 -22
69 c-41 128 -97 149 -251 93 -46 -16 -83 -29 -85 -27 -1 1 4 36 12 77 7 41 16
126 20 188 6 99 9 112 24 107 9 -3 52 -12 94 -20z m-2700 -91 c4 -59 14 -141
21 -183 7 -42 12 -77 11 -78 -2 -2 -42 11 -91 27 -102 35 -156 38 -205 11 -31
-16 -38 -28 -58 -96 l-24 -77 -51 7 c-29 4 -79 16 -111 26 -33 10 -66 15 -74
10 -13 -7 47 -28 176 -61 41 -11 50 -22 33 -48 -6 -11 -20 -10 -72 2 -58 13
-249 79 -272 93 -5 3 23 21 63 40 44 21 97 58 137 97 l65 62 -26 82 c-14 45
-29 100 -32 122 l-7 40 164 1 c90 1 193 7 229 14 36 7 77 13 91 14 l26 1 7
-106z m-41 -339 c59 -21 106 -40 103 -42 -3 -3 -45 4 -94 16 -115 27 -148 27
-155 1 -4 -16 9 -29 65 -66 38 -25 67 -48 65 -50 -2 -2 -36 7 -75 20 -70 24
-72 24 -82 6 -16 -30 -12 -38 24 -50 38 -12 86 -46 86 -61 0 -14 -42 -11 -90
6 -24 8 -45 14 -47 12 -4 -5 -63 -179 -63 -188 0 -3 38 -24 85 -45 79 -36 103
-54 73 -54 -7 0 -45 10 -85 21 -39 12 -79 19 -87 16 -32 -12 -16 -38 39 -63
93 -43 80 -69 -17 -35 l-56 19 -12 -29 c-16 -38 -7 -70 32 -108 56 -55 441
-171 728 -220 658 -113 1092 -115 1740 -10 190 30 291 56 535 136 214 70 260
100 258 169 -2 51 -13 59 -65 45 -83 -24 -88 -24 -88 -8 0 9 23 23 60 37 45
17 60 27 60 42 0 30 -26 32 -103 9 -40 -11 -78 -21 -84 -21 -32 0 -6 19 73 54
58 27 83 43 80 52 -3 8 -17 52 -32 100 -29 95 -18 90 -115 60 -26 -8 -52 -11
-59 -6 -22 14 5 37 71 61 61 22 68 33 46 63 -12 16 -15 16 -57 -3 -25 -11 -51
-21 -59 -21 -21 0 22 43 65 66 37 20 45 50 17 61 -9 4 -53 -1 -98 -11 -44 -10
-91 -20 -105 -22 -29 -6 130 59 190 77 50 15 51 14 81 -86 11 -38 52 -173 91
-298 81 -260 83 -286 26 -344 -45 -47 -77 -62 -263 -121 -310 -99 -555 -151
-887 -189 -219 -25 -753 -25 -963 1 -331 39 -655 109 -945 202 -175 56 -211
73 -245 119 -39 51 -36 95 23 280 28 88 67 216 88 285 20 69 41 133 46 144 13
24 40 19 181 -29z m144 -51 c-3 -3 -12 -4 -19 -1 -8 3 -5 6 6 6 11 1 17 -2 13
-5z m2278 -279 c15 -49 40 -130 55 -180 15 -49 31 -100 34 -112 6 -20 1 -24
-45 -37 -29 -9 -54 -15 -55 -13 -5 5 -125 419 -122 421 9 8 94 22 100 17 3 -3
18 -46 33 -96z m-1997 70 c51 -22 81 -52 108 -110 28 -59 30 -95 7 -160 -32
-95 -120 -155 -227 -155 -86 0 -138 36 -176 123 -54 123 3 273 118 307 45 14
130 11 170 -5z m1798 -32 c3 -16 17 -71 31 -123 14 -52 30 -112 35 -133 13
-56 -5 -108 -51 -150 -107 -97 -261 -64 -311 67 -17 45 -61 299 -53 307 5 4
30 9 57 11 l49 3 28 -144 c16 -80 35 -151 42 -159 20 -19 74 -18 97 3 28 25
26 70 -10 195 -16 58 -30 110 -30 117 0 13 48 31 87 32 17 1 24 -6 29 -26z
m-1497 -13 c40 -1 41 -11 16 -140 -14 -69 -25 -133 -25 -142 0 -27 37 -58 69
-58 49 0 67 35 87 170 10 66 20 124 24 130 4 6 25 8 53 4 55 -8 53 2 33 -180
-10 -88 -20 -133 -35 -161 -67 -118 -239 -124 -320 -12 -40 54 -40 97 -4 271
l27 130 29 -6 c16 -3 37 -6 46 -6z m-708 -50 c29 -16 26 -77 -5 -91 -37 -17
-66 3 -66 46 0 46 31 66 71 45z m2617 -6 c38 -26 20 -94 -25 -94 -25 0 -53 30
-53 56 0 19 32 54 50 54 3 0 16 -7 28 -16z m-1454 -151 c-3 -87 -7 -171 -9
-188 -1 -16 -3 -45 -4 -62 l-1 -33 -56 0 -56 0 7 203 c3 111 9 210 11 220 4
13 16 17 60 17 l54 0 -6 -157z m534 138 c117 -60 161 -194 102 -311 -36 -71
-104 -110 -190 -110 -85 0 -162 54 -197 137 -18 44 -17 138 3 179 19 39 74 90
118 110 45 19 121 17 164 -5z m-838 -771 c31 0 50 -27 43 -63 -8 -45 -16 -50
-62 -42 -44 7 -48 17 -35 84 5 23 11 30 21 27 8 -4 23 -6 33 -6z m954 -7 c4
-4 -8 -13 -26 -19 -33 -12 -33 -12 -5 -13 31 -1 36 -17 7 -26 -32 -10 -23 -25
10 -18 38 7 41 -14 3 -23 -16 -3 -33 -7 -40 -9 -16 -5 -20 2 -28 57 -6 40 -4
47 12 51 29 8 59 8 67 0z m-807 -25 c13 -18 45 -100 40 -104 -2 -3 -17 3 -33
11 -17 9 -40 13 -56 9 -16 -3 -28 -4 -28 -1 0 11 53 97 60 97 4 0 12 -6 17
-12z m693 2 c0 -5 -9 -10 -20 -10 -18 0 -19 -5 -13 -45 5 -38 3 -45 -11 -45
-12 0 -16 10 -16 40 0 33 -3 40 -20 40 -11 0 -20 7 -20 15 0 11 12 15 50 15
28 0 50 -4 50 -10z m-546 -6 c26 -10 18 -24 -14 -24 -34 0 -49 -22 -30 -45 19
-23 43 -19 35 5 -5 16 -2 20 14 20 32 0 28 -47 -4 -62 -22 -10 -30 -8 -53 9
-34 25 -39 56 -13 82 22 22 38 25 65 15z m426 -4 c0 -5 -10 -10 -21 -10 -20 0
-21 -4 -17 -45 7 -58 -17 -63 -26 -5 -4 26 -11 40 -21 40 -8 0 -15 7 -15 15 0
11 12 15 50 15 28 0 50 -4 50 -10z m-338 -37 c2 -30 7 -38 23 -38 16 0 21 8
23 38 4 48 32 52 32 4 0 -65 -50 -98 -92 -60 -23 20 -26 93 -4 93 10 0 16 -13
18 -37z m208 27 c0 -5 -13 -10 -30 -10 -16 0 -30 -4 -30 -10 0 -5 11 -10 25
-10 14 0 25 -4 25 -10 0 -5 -11 -10 -25 -10 -14 0 -25 -4 -25 -10 0 -5 14 -10
30 -10 41 0 38 -18 -4 -26 -48 -8 -56 0 -56 57 l0 49 45 0 c25 0 45 -4 45 -10z"/>
<path d="M3180 3720 c-13 -8 -12 -10 3 -10 9 0 17 5 17 10 0 12 -1 12 -20 0z"/>
<path d="M2163 3504 c-41 -20 -103 -88 -103 -112 0 -20 18 -42 36 -42 6 0 29
14 50 31 32 25 44 29 72 24 82 -15 97 75 18 105 -34 13 -35 13 -73 -6z"/>
<path d="M2985 3341 c-3 -5 -1 -12 5 -16 5 -3 10 1 10 9 0 18 -6 21 -15 7z"/>
<path d="M2169 3267 c-18 -12 -44 -38 -57 -57 -20 -30 -23 -44 -20 -94 4 -54
8 -62 45 -97 66 -61 152 -63 221 -4 29 24 57 98 48 127 -2 7 -7 25 -10 39 -19
88 -150 138 -227 86z m75 -23 c20 -19 20 -34 0 -62 -18 -26 -41 -28 -66 -5
-22 20 -23 32 -2 61 18 26 46 28 68 6z m109 -136 c7 -21 -4 -38 -23 -38 -23 0
-34 16 -26 35 7 18 43 20 49 3z"/>
<path d="M2732 3273 c-87 -43 -118 -165 -60 -238 23 -29 90 -64 123 -65 102
-1 190 98 170 192 -8 35 -57 93 -96 114 -37 19 -96 18 -137 -3z m82 -29 c17
-45 -1 -84 -39 -84 -29 0 -45 19 -45 52 0 42 70 69 84 32z m104 -147 c4 -20
-25 -34 -40 -19 -15 15 -1 44 19 40 10 -2 19 -11 21 -21z"/>
<path d="M3012 3050 c0 -14 2 -19 5 -12 2 6 2 18 0 25 -3 6 -5 1 -5 -13z"/>
<path d="M2352 2888 c-7 -7 -12 -31 -12 -53 0 -42 31 -98 76 -136 52 -45 155
-48 222 -7 46 28 92 102 92 148 0 43 -14 60 -50 60 -31 0 -50 -17 -50 -42 0
-58 -61 -106 -119 -93 -36 8 -81 57 -81 89 0 28 -18 46 -45 46 -12 0 -26 -5
-33 -12z"/>
<path d="M2515 2605 c-73 -13 -170 -47 -246 -85 -71 -36 -270 -190 -245 -190
14 0 219 82 307 123 53 25 152 63 220 85 68 23 144 50 169 61 l45 21 -90 -1
c-49 0 -121 -7 -160 -14z"/>
<path d="M2930 2061 c0 -25 6 -27 13 -6 4 8 2 17 -3 20 -6 4 -10 -3 -10 -14z"/>
<path d="M1504 1660 c-89 -36 -63 -190 31 -190 55 0 95 44 95 105 0 74 -57
113 -126 85z"/>
<path d="M2769 1531 c-39 -39 -41 -106 -5 -148 48 -56 147 -25 162 51 18 101
-88 166 -157 97z"/>
<path d="M2060 850 c0 -5 10 -10 23 -10 18 0 19 2 7 10 -19 13 -30 13 -30 0z"/>
<path d="M2050 810 c0 -5 9 -10 20 -10 11 0 20 5 20 10 0 6 -9 10 -20 10 -11
0 -20 -4 -20 -10z"/>
<path d="M2195 800 c-3 -5 1 -10 9 -10 9 0 16 5 16 10 0 6 -4 10 -9 10 -6 0
-13 -4 -16 -10z"/>
</g>
</svg>
