<svg xmlns="http://www.w3.org/2000/svg" width="500" height="500" viewBox="0 0 500 500" version="1.1"><path d="M 277.404 47.506 C 276.045 49.580, 275.967 50.506, 276.950 52.880 C 278.551 56.744, 277.433 62.003, 273.867 67.387 L 270.955 71.784 263.727 69.942 C 245.909 65.401, 230.841 65.285, 214.264 69.562 C 199.571 73.353, 193.874 77.262, 188.855 87 C 184.371 95.697, 186.599 107.752, 193.530 112.296 L 196.742 114.401 192.962 119.950 C 185.331 131.155, 181.581 142.598, 180.368 158.380 L 179.696 167.117 169.897 174.628 C 154.778 186.217, 142.082 202.183, 133.678 220.177 C 127.697 232.982, 125.420 240.024, 126.954 240.971 C 127.610 241.377, 123.276 242.787, 117.323 244.104 C 107.846 246.202, 103.950 246.500, 86 246.500 C 74.725 246.500, 64.938 246.864, 64.250 247.309 C 62.220 248.623, 62.819 255.761, 65.943 267.500 L 68.870 278.500 65.685 281.223 C 61.853 284.499, 51.032 290.279, 45.500 292.005 C 36.769 294.729, 35.561 299.215, 42.250 304.076 C 50.624 310.162, 58.699 313.951, 71.243 317.680 C 82.760 321.103, 83.931 321.662, 83.407 323.484 C 83.088 324.593, 80.841 331.757, 78.414 339.405 C 75.985 347.055, 74 355.278, 74 357.687 C 74 370.055, 84.429 380.395, 101.113 384.569 C 104.626 385.448, 112.450 387.690, 118.500 389.552 C 124.550 391.413, 133.550 393.884, 138.500 395.042 C 146.616 396.941, 147.991 397.614, 152.500 401.897 C 171.563 420.003, 192.826 431.810, 217.673 438.086 C 234.601 442.361, 248.188 443.556, 264.222 442.181 C 299.682 439.141, 330.864 425.255, 356.065 401.282 C 359.995 397.543, 361.791 396.663, 368.994 394.942 C 381.936 391.851, 412.041 382.052, 416.500 379.478 C 422.001 376.304, 426.526 371.318, 428.556 366.195 C 431.019 359.976, 430.012 351.106, 425.029 335.153 C 422.737 327.812, 421.005 321.686, 421.181 321.540 C 421.356 321.394, 425.550 320.124, 430.500 318.719 C 443.651 314.986, 449.510 312.614, 459.009 307.177 C 466.965 302.623, 467.519 302.091, 467.806 298.724 C 468.162 294.551, 467.432 293.995, 457.612 290.962 C 451.547 289.089, 440.698 282.751, 438.008 279.510 C 437.018 278.317, 437.204 276.432, 438.950 269.963 C 441.840 259.250, 442.753 248.596, 440.883 247.391 C 440.122 246.901, 430.500 246.495, 419.500 246.489 C 401.819 246.479, 398.382 246.201, 389.856 244.095 L 380.212 241.713 377.261 243.814 C 374.331 245.900, 374.304 246.009, 373.630 258.632 C 373.012 270.192, 370.726 288.985, 369.428 293.183 C 369.106 294.225, 365.969 295.844, 361.204 297.431 C 352.147 300.445, 332.689 304.978, 328.750 304.991 L 326 305 326 278.637 L 326 252.273 331.250 253.248 C 338.257 254.550, 353.187 253.567, 360 251.356 C 368.130 248.718, 382.882 238.335, 386.273 232.864 C 391.297 224.760, 389.495 216.992, 382.595 217.007 C 379.040 217.014, 376.499 218.632, 369.500 225.349 C 359.903 234.558, 346.954 238.852, 334.300 237.023 C 330.560 236.482, 327.163 236.031, 326.750 236.020 C 325.664 235.991, 325.815 177, 326.901 177 C 327.396 177, 330.434 179.004, 333.651 181.452 C 344.199 189.481, 358.404 207.018, 363.921 218.821 C 365.252 221.669, 366.630 224, 366.983 224 C 367.335 224, 368.690 222.558, 369.993 220.796 L 372.361 217.592 368.026 209.546 C 360.698 195.947, 346.821 180.682, 332.489 170.455 L 326 165.824 326 159.783 L 326 153.742 331.010 154.407 C 337.774 155.304, 342.889 153.742, 346.970 149.530 C 349.894 146.515, 350.431 145.189, 350.800 140.084 C 351.179 134.845, 350.865 133.507, 348.134 128.734 C 343.774 121.114, 340.913 117.792, 329.218 106.765 C 317.550 95.765, 301.401 84.505, 289.250 78.898 C 284.712 76.805, 281 74.691, 281 74.201 C 281 73.711, 281.964 72.453, 283.142 71.405 C 285.739 69.095, 289.977 60.349, 289.990 57.270 C 290.005 53.846, 286.974 47.056, 284.945 45.971 C 281.872 44.326, 279.121 44.886, 277.404 47.506 M 220.093 77.072 C 213.060 78.317, 203.850 82.485, 200.716 85.842 C 195.390 91.546, 194.633 101.451, 199.297 104.416 C 201.325 105.706, 233.578 115.063, 235.609 114.951 C 236.099 114.924, 233.350 113.298, 229.500 111.339 C 220.652 106.836, 219 105.355, 219 101.928 C 219 98.159, 220.699 97.838, 226 100.605 C 245.607 110.837, 271.678 119.441, 298.500 124.533 C 303.450 125.472, 307.928 126.637, 308.450 127.121 C 310.052 128.604, 311.324 128.095, 310 126.500 C 309.315 125.675, 307.610 125, 306.211 125 C 304.812 125, 303.892 124.775, 304.167 124.500 C 305.036 123.630, 311 123.227, 311 124.038 C 311 124.464, 311.970 124.559, 313.156 124.249 C 314.634 123.862, 315.088 124.049, 314.597 124.842 C 314.172 125.530, 314.515 126, 315.441 126 C 316.298 126, 317 125.273, 317 124.383 C 317 123.184, 317.580 122.932, 319.250 123.407 C 324.958 125.033, 327.297 125.289, 326.634 124.217 C 326.222 123.551, 326.730 123.179, 327.927 123.269 C 329.266 123.370, 329.599 123.779, 328.965 124.542 C 328.353 125.280, 328.493 125.667, 329.371 125.667 C 330.109 125.667, 330.645 124.730, 330.565 123.583 C 330.485 122.438, 329.841 121.624, 329.135 121.775 C 328.429 121.926, 328.144 121.575, 328.503 120.996 C 329.261 119.769, 319.066 110.073, 308.119 101.609 C 298.495 94.167, 275.603 82.914, 263 79.428 C 255.335 77.308, 250.796 76.735, 239.500 76.458 C 231.800 76.269, 223.067 76.545, 220.093 77.072 M 202.472 121.626 C 199.133 126.003, 194.827 134.720, 192.366 142.084 C 190.692 147.095, 190.532 153.467, 190.233 227.220 L 189.911 306.940 192.205 307.432 C 196.047 308.257, 211.775 309.949, 225.395 311.002 C 250.465 312.942, 292.837 311.613, 295.500 308.804 C 296.194 308.072, 295.589 307.912, 293.519 308.280 C 290.757 308.772, 290.679 308.708, 292.460 307.405 C 293.517 306.632, 293.820 306, 293.132 306 C 292.445 306, 292.148 305.570, 292.473 305.044 C 292.798 304.518, 293.837 304.335, 294.782 304.638 C 296.152 305.077, 296.214 304.986, 295.091 304.187 C 294.316 303.636, 293.004 303.445, 292.177 303.762 C 291.349 304.080, 290.929 303.925, 291.242 303.417 C 291.556 302.910, 292.086 298.244, 292.419 293.048 C 292.793 287.239, 293.502 283.299, 294.263 282.816 C 294.943 282.384, 295.067 282.024, 294.538 282.015 C 294.008 282.007, 295.808 279.685, 298.538 276.857 C 304.216 270.971, 302.825 271.017, 294.368 276.995 C 275.178 290.559, 257.584 299.551, 240.517 304.515 C 233.927 306.432, 228.111 308, 227.593 308 C 224.147 308, 244.680 290.910, 253.870 286.129 C 261.934 281.933, 284.693 273.742, 291.555 272.565 L 295.500 271.889 295.720 264.694 C 295.841 260.737, 296.197 256.450, 296.510 255.166 C 296.872 253.686, 296.700 253.068, 296.040 253.475 C 294.700 254.303, 294.717 253.981, 296.501 244.656 C 297.327 240.342, 298.300 232.270, 298.664 226.718 C 299.235 217.997, 299.632 216.344, 301.582 214.562 C 305.428 211.047, 305.569 208.334, 302.076 205.071 C 299.377 202.550, 299.002 201.542, 299.015 196.849 C 299.026 193.027, 299.307 191.928, 300 193 C 300.704 194.090, 300.974 194.142, 300.985 193.191 C 300.993 192.458, 301.508 192.196, 302.155 192.595 C 302.870 193.038, 303.038 192.870, 302.595 192.155 C 302.203 191.520, 301.219 191, 300.410 191 C 299.347 191, 299.003 190.019, 299.175 187.472 C 299.356 184.785, 299.781 184.071, 300.956 184.475 C 302.322 184.944, 302.327 184.860, 301 183.752 C 300.175 183.064, 299.469 180.925, 299.431 179 C 299.392 177.075, 299.199 173.137, 299.002 170.250 C 298.681 165.564, 298.399 165, 296.373 165 C 295.124 165, 292.889 163.875, 291.405 162.500 C 289.298 160.547, 287.646 160, 283.854 160 C 280.333 160, 278.451 159.451, 277 158 C 274.328 155.328, 274.463 154.383, 278.030 150.816 L 281.059 147.787 278.357 145.143 C 276.871 143.690, 276.027 143.132, 276.482 143.905 C 277.057 144.881, 276.937 145.079, 276.089 144.555 C 275.173 143.989, 275.297 143.329, 276.590 141.901 C 279.666 138.502, 276.434 139.874, 265.365 146.669 C 259.389 150.337, 250.487 155.060, 245.582 157.164 C 240.677 159.269, 235.572 161.706, 234.237 162.580 C 231.880 164.125, 231.832 164.104, 232.532 161.835 C 234.851 154.327, 241.550 146.772, 250.562 141.501 L 257.389 137.509 254.444 136.540 C 252.825 136.007, 247 133.245, 241.500 130.403 C 233.241 126.135, 210.132 118, 206.266 118 C 205.700 118, 203.993 119.632, 202.472 121.626 M 216.500 149.565 C 211.978 151.906, 206 158.133, 206 160.503 C 206 162.833, 207.746 165, 209.623 165 C 210.296 165, 212.294 163.782, 214.064 162.293 C 216.528 160.219, 218.235 159.624, 221.360 159.749 C 230.101 160.097, 231.767 152.143, 223.603 149.039 C 220.117 147.714, 220.070 147.717, 216.500 149.565 M 214.347 175.388 L 209.500 179.776 209.500 186.960 C 209.500 194.093, 209.529 194.171, 213.641 198.006 C 220.274 204.193, 228.831 204.379, 235.833 198.487 C 240.795 194.312, 241.837 185.169, 238.138 178.258 C 236.220 174.673, 228.942 171, 223.759 171 C 219.768 171, 218.583 171.553, 214.347 175.388 M 271.261 173.926 C 264.141 179.084, 262.036 189.448, 266.782 195.977 C 269.875 200.230, 276.778 203.222, 281.960 202.555 C 295.124 200.861, 301.138 186.922, 292.802 177.428 C 286.424 170.163, 278.282 168.840, 271.261 173.926 M 217.557 176.223 C 215.522 179.127, 215.593 180.322, 217.926 182.433 C 220.457 184.724, 223.077 184.118, 224.932 180.811 C 226.303 178.369, 226.271 177.957, 224.562 176.068 C 222.132 173.384, 219.505 173.442, 217.557 176.223 M 274.571 175.571 C 271.396 178.747, 273.222 184, 277.500 184 C 281.326 184, 283.128 180.103, 281.393 175.582 C 280.612 173.548, 276.601 173.542, 274.571 175.571 M 172.276 182.834 C 159.342 193.969, 150.919 204.648, 142.171 221 C 135.176 234.075, 133.995 239.214, 134.034 256.415 C 134.074 273.985, 136.132 293.846, 138.036 295.022 C 140.232 296.380, 157.960 301.189, 169.250 303.489 L 180 305.680 180 297.899 L 180 290.119 177.250 291.553 C 172.870 293.838, 167.309 293.400, 164.455 290.545 C 161.399 287.490, 161.332 284.586, 164.250 281.714 L 166.500 279.500 162.099 275.500 C 154.326 268.435, 152.173 259.515, 155.520 248.243 C 156.718 244.210, 158.226 242.068, 162.626 238.145 C 165.698 235.407, 170.864 231.907, 174.106 230.368 L 180 227.569 180 202.284 C 180 188.378, 179.787 177, 179.526 177 C 179.265 177, 176.002 179.625, 172.276 182.834 M 230.380 189.452 C 229.617 191.441, 230.747 193, 232.952 193 C 234.918 193, 235.979 191.283, 235.269 189.250 C 234.668 187.526, 231.062 187.675, 230.380 189.452 M 287.364 189.493 C 287.018 190.396, 287.214 191.614, 287.800 192.200 C 289.324 193.724, 292.210 192.331, 291.812 190.265 C 291.369 187.963, 288.165 187.407, 287.364 189.493 M 235.278 211.250 C 232.115 215.338, 233.401 220.902, 238.973 227.232 C 247.842 237.307, 262.709 235.835, 270.121 224.148 C 273.171 219.339, 273.948 213.348, 271.800 211.200 C 269.162 208.562, 263 210.382, 263 213.799 C 263 216.836, 259.711 221.877, 256.996 223.002 C 255.400 223.663, 252.787 223.892, 251.093 223.520 C 247.506 222.733, 243 217.779, 243 214.623 C 243 213.400, 242.460 211.860, 241.800 211.200 C 240.233 209.633, 236.507 209.662, 235.278 211.250 M 251.500 239.477 C 244.191 240.831, 234.484 244.202, 226.933 248.006 C 219.470 251.767, 199.739 267, 202.331 267 C 203.855 267, 224.309 258.827, 233.105 254.703 C 238.388 252.226, 248.288 248.384, 255.105 246.165 C 261.922 243.946, 269.525 241.211, 272 240.087 L 276.500 238.044 267.500 238.112 C 262.550 238.150, 255.350 238.764, 251.500 239.477 M 174.571 251.368 C 170.285 255.410, 170.073 258.041, 173.750 261.522 C 179.769 267.219, 180 267.053, 180 257.035 C 180 252.066, 179.582 248, 179.071 248 C 178.560 248, 176.535 249.516, 174.571 251.368 M 382.619 263.231 C 382.240 269.429, 381.327 277.875, 380.590 282 C 379.852 286.125, 379.340 289.610, 379.451 289.743 C 379.562 289.877, 383.344 288.640, 387.856 286.993 C 403.238 281.379, 408.877 283.461, 412.999 296.273 L 415.178 303.045 420.339 302.365 C 423.178 301.990, 428.650 300.916, 432.500 299.976 C 436.350 299.037, 439.895 298.496, 440.378 298.773 C 441.802 299.590, 439.079 300.591, 429 302.958 C 423.775 304.185, 418.759 305.387, 417.853 305.629 C 416.178 306.077, 416.346 309.478, 418.096 310.559 C 420.091 311.792, 450.671 302.684, 453.323 300.066 C 453.776 299.619, 452.998 298.965, 451.595 298.613 C 447.089 297.482, 438.291 291.663, 432.171 285.765 L 426.220 280.030 429.109 269.265 C 430.698 263.344, 431.999 257.938, 431.999 257.250 C 432 256.306, 428.351 256, 417.088 256 C 404.043 256, 391.831 254.668, 385.001 252.500 C 383.503 252.025, 383.227 253.268, 382.619 263.231 M 112 254.536 C 108.425 255.222, 98.130 255.833, 89.122 255.892 L 72.744 256 73.379 259.971 C 73.729 262.155, 75.188 267.657, 76.622 272.196 L 79.229 280.449 72.468 286.855 C 68.052 291.038, 63.274 294.387, 58.693 296.509 C 50.425 300.339, 50.011 299.903, 67.500 305.781 C 83.650 311.209, 86.648 311.685, 87.514 308.955 C 87.882 307.797, 87.975 306.641, 87.720 306.387 C 87.466 306.133, 83.038 304.803, 77.879 303.432 C 64.026 299.751, 64.422 299.903, 66.160 298.931 C 67.051 298.432, 70.016 298.832, 73.573 299.932 C 76.833 300.941, 81.803 302.077, 84.617 302.458 L 89.734 303.151 92.117 295.443 C 94.200 288.706, 94.939 287.499, 97.984 285.867 C 102.885 283.241, 108.253 283.536, 118.484 286.995 C 123.357 288.642, 127.436 289.879, 127.548 289.745 C 127.660 289.610, 127.159 286.125, 126.435 282 C 125.710 277.875, 124.802 269.663, 124.417 263.750 L 123.715 253 121.108 253.144 C 119.673 253.222, 115.575 253.849, 112 254.536 M 102.180 294.750 C 101.691 295.712, 99.619 302.125, 97.575 309 C 95.532 315.875, 91.581 328.700, 88.794 337.500 C 85.845 346.815, 83.747 355.292, 83.774 357.788 C 83.830 362.996, 87.377 368.138, 92.808 370.887 C 98.711 373.874, 124.199 381.682, 143.608 386.449 C 165.387 391.799, 173.009 393.260, 193 395.916 C 261.411 405.006, 327.943 399.125, 391.464 378.373 C 411.038 371.978, 412.340 371.378, 416.863 366.671 C 422.103 361.218, 422.076 357.300, 416.679 340.500 C 414.205 332.800, 410.322 320.200, 408.050 312.500 C 402.086 292.284, 402.329 292.772, 398.609 293.569 C 394.575 294.433, 375.117 301.893, 376.739 301.954 C 377.420 301.979, 381.361 301.072, 385.497 299.937 C 394.586 297.443, 399.376 297.633, 399.787 300.503 C 399.990 301.916, 399.049 303.057, 396.591 304.381 C 392.263 306.712, 388.018 311.010, 390.076 310.978 C 390.859 310.966, 393.514 310.043, 395.975 308.926 C 400.209 307.006, 400.520 306.990, 401.725 308.639 C 403.926 311.648, 403.170 312.670, 397.112 314.879 C 393.873 316.060, 390.639 317.729, 389.926 318.589 C 387.724 321.243, 390.669 321.996, 396.400 320.245 C 404.961 317.629, 404.927 317.611, 407.409 326 C 408.629 330.125, 409.948 334.453, 410.339 335.618 C 410.974 337.507, 410.128 338.152, 402.525 341.576 C 394.660 345.118, 392.143 346.995, 395.250 347.003 C 395.938 347.005, 399.737 346.047, 403.693 344.874 C 411.423 342.583, 414 342.826, 414 345.847 C 414 347.264, 412.455 348.334, 408 350 C 404.655 351.251, 402 352.854, 402 353.622 C 402 355.335, 401.796 355.343, 409.043 353.328 C 415.993 351.396, 417.140 351.959, 417.294 357.371 C 417.406 361.355, 414.603 365.096, 409.529 367.735 C 405.459 369.852, 380.890 378.088, 367.500 381.825 C 361.450 383.513, 348.400 386.242, 338.500 387.889 C 275.074 398.443, 230.589 398.231, 164.334 387.059 C 137.012 382.452, 97.142 370.462, 91.251 365.082 C 87.439 361.601, 86.358 357.965, 87.973 354.064 L 89.173 351.167 94.808 353.106 C 104.528 356.450, 105.766 353.871, 96.481 349.620 C 91.014 347.117, 89.408 344.548, 92.557 343.340 C 93.413 343.011, 97.351 343.702, 101.307 344.874 C 105.263 346.047, 109.063 347.005, 109.750 347.003 C 112.769 346.996, 110.385 345.227, 102.491 341.618 C 97.821 339.482, 94 337.458, 94 337.120 C 94 335.278, 100.290 318, 100.960 318 C 101.398 318, 103.371 318.675, 105.346 319.500 C 109.370 321.182, 114 321.486, 114 320.068 C 114 318.867, 109.412 315.713, 105.250 314.053 C 101.765 312.664, 101.436 311.922, 103.003 308.995 C 103.972 307.184, 104.245 307.203, 111.172 309.558 C 115.113 310.899, 118.511 311.822, 118.723 311.611 C 118.935 311.399, 115.977 309.144, 112.151 306.600 C 106.604 302.912, 105.299 301.572, 105.713 299.988 C 106.395 297.381, 109.717 297.405, 121.194 300.099 C 130.857 302.368, 134.239 302.071, 126.349 299.646 C 123.682 298.827, 118.246 296.996, 114.269 295.578 C 105.755 292.543, 103.385 292.380, 102.180 294.750 M 354 321.335 C 351.525 321.873, 349.375 322.405, 349.223 322.517 C 348.812 322.819, 359.981 361.096, 361.078 363.145 C 361.934 364.746, 362.418 364.778, 366.607 363.518 C 369.131 362.758, 371.378 361.956, 371.599 361.735 C 371.820 361.513, 370.479 356.420, 368.620 350.416 C 366.761 344.412, 364.021 335.450, 362.531 330.500 C 361.041 325.550, 359.525 321.243, 359.161 320.928 C 358.797 320.614, 356.475 320.797, 354 321.335 M 146.554 322.727 C 138.417 324.797, 131.857 334.092, 131.857 343.552 C 131.857 349.398, 134.677 356.958, 138.299 360.825 C 142.917 365.755, 151.786 367.339, 160.384 364.770 C 169.613 362.013, 177.131 349.654, 175.490 339.938 C 174.516 334.177, 169.312 327.039, 164.093 324.307 C 159.813 322.067, 151.937 321.357, 146.554 322.727 M 334.250 325.119 C 332.462 325.635, 331 326.382, 331.001 326.779 C 331.001 327.175, 332.341 332.450, 333.978 338.500 C 337.544 351.680, 337.762 356, 334.987 358.512 C 332.559 360.709, 327.464 360.892, 325.427 358.856 C 324.615 358.043, 322.677 350.881, 321.120 342.939 L 318.290 328.500 313.395 328.841 C 310.703 329.028, 308.160 329.503, 307.744 329.897 C 306.951 330.647, 311.338 356.127, 313.024 360.563 C 318.007 373.669, 333.668 376.989, 344.179 367.168 C 350.299 361.450, 350.619 358.146, 346.570 342.500 C 344.720 335.350, 342.926 328.262, 342.584 326.750 C 341.905 323.747, 340.174 323.408, 334.250 325.119 M 182.726 339.828 C 179.074 357.013, 179.130 361.498, 183.062 366.926 C 189.790 376.215, 203.319 377.775, 211.339 370.186 C 215.932 365.841, 217.077 362.508, 218.568 349.148 C 220.578 331.145, 220.808 332.383, 215.313 331.629 C 212.455 331.238, 210.376 331.392, 209.985 332.024 C 209.633 332.595, 208.550 338.439, 207.580 345.013 C 205.586 358.524, 203.815 362, 198.927 362 C 195.530 362, 192 358.913, 192 355.942 C 192 354.261, 194.327 341.624, 196.532 331.333 C 196.940 329.432, 196.376 329.032, 191.949 328.083 C 189.173 327.487, 186.575 327, 186.177 327 C 185.778 327, 184.225 332.772, 182.726 339.828 M 117.250 333.098 C 115.505 333.747, 115 334.721, 115 337.433 C 115 341.800, 117.899 343.823, 121.687 342.097 C 123.719 341.171, 124.069 340.389, 123.810 337.352 C 123.462 333.271, 121.027 331.692, 117.250 333.098 M 378.223 333.557 C 375.527 335.445, 375.342 339.095, 377.829 341.345 C 381.295 344.482, 386 342.260, 386 337.485 C 386 335.472, 382.835 332, 381 332 C 380.695 332, 379.445 332.701, 378.223 333.557 M 150.357 333.992 C 144.699 336.275, 142.981 346.072, 147.455 350.545 C 151.001 354.092, 156.257 353.897, 160.077 350.077 C 162.465 347.689, 163 346.307, 163 342.531 C 163 334.924, 157.407 331.147, 150.357 333.992 M 227.621 336.750 C 227.316 338.813, 226.769 348.712, 226.406 358.750 L 225.745 377 231.372 377 L 237 377 237.045 373.750 C 237.070 371.962, 237.271 368.250, 237.492 365.500 C 237.713 362.750, 238.154 354.313, 238.472 346.750 L 239.051 333 233.613 333 L 228.176 333 227.621 336.750 M 275.422 334.418 C 270.986 336.350, 265.477 341.476, 263.611 345.407 C 261.649 349.542, 261.511 358.898, 263.348 363.282 C 265.327 368.003, 269.722 372.817, 274.086 375.044 C 281.470 378.811, 293.235 376.815, 298.702 370.868 C 304.012 365.093, 305.940 353.343, 302.784 346 C 298.385 335.765, 285.173 330.173, 275.422 334.418 M 276.923 346.923 C 273.039 350.807, 272.799 357.492, 276.394 361.672 C 281.248 367.314, 291.121 364.203, 292.551 356.580 C 294.433 346.550, 283.841 340.005, 276.923 346.923 M 202.636 414.070 C 201.283 420.836, 201.664 421.767, 206.096 422.516 C 210.994 423.344, 211.824 422.683, 212.161 417.686 C 212.425 413.760, 211.116 412.045, 207.832 412.015 C 206.914 412.007, 205.513 411.750, 204.718 411.445 C 203.706 411.057, 203.081 411.846, 202.636 414.070 M 296.650 412.709 C 295.051 413.121, 294.895 413.814, 295.498 417.843 C 295.881 420.404, 296.373 422.790, 296.592 423.145 C 296.810 423.500, 298.791 423.333, 300.994 422.774 C 305.643 421.594, 306.535 419.443, 302 420.350 C 298.669 421.016, 297.849 419.500, 301 418.500 C 303.905 417.578, 303.450 416.013, 300.250 415.921 L 297.500 415.842 300.250 414.838 C 305.444 412.941, 302.502 411.201, 296.650 412.709 M 206 415 C 206 415.550, 206.927 416, 208.059 416 C 209.191 416, 209.840 415.550, 209.500 415 C 209.160 414.450, 208.234 414, 207.441 414 C 206.648 414, 206 414.450, 206 415 M 217.585 418.626 C 216.163 421.170, 215 423.456, 215 423.705 C 215 423.955, 216.368 423.858, 218.041 423.491 C 220.123 423.034, 221.883 423.349, 223.627 424.492 C 225.028 425.409, 226.378 425.955, 226.629 425.705 C 227.159 425.174, 224.135 417.085, 222.719 415.250 C 221.144 413.208, 220.305 413.759, 217.585 418.626 M 282 415.500 C 282 416.333, 282.889 417, 284 417 C 285.667 417, 286 417.667, 286 421 C 286 424.014, 286.398 425, 287.614 425 C 288.959 425, 289.115 424.253, 288.552 420.500 C 287.938 416.404, 288.062 416, 289.939 416 C 291.072 416, 292 415.550, 292 415 C 292 414.450, 289.750 414, 287 414 C 283.222 414, 282 414.367, 282 415.500 M 231 417 C 228.535 419.465, 228.440 422.205, 230.750 424.204 C 234.845 427.746, 240 426.769, 240 422.450 C 240 420.640, 239.460 420, 237.933 420 C 236.320 420, 236.005 420.440, 236.500 422 C 237.267 424.417, 234.882 424.768, 233.011 422.513 C 231.102 420.213, 232.553 418, 235.969 418 C 239.200 418, 240.040 416.613, 237.418 415.607 C 234.715 414.570, 233.074 414.926, 231 417 M 270 416.500 C 270 417.325, 270.627 418, 271.393 418 C 273.005 418, 274 420.130, 274 423.582 C 274 424.912, 274.450 426, 275 426 C 275.550 426, 276 423.975, 276 421.500 C 276 417.667, 276.296 417, 278 417 C 279.100 417, 280 416.550, 280 416 C 280 415.450, 277.750 415, 275 415 C 271.222 415, 270 415.367, 270 416.500 M 243 419.845 C 243 426.323, 249.121 429.520, 252.443 424.777 C 254.453 421.908, 254.532 416, 252.560 416 C 251.619 416, 251.013 417.297, 250.810 419.750 C 250.564 422.730, 250.089 423.500, 248.500 423.500 C 246.911 423.500, 246.436 422.730, 246.190 419.750 C 245.754 414.490, 243 414.572, 243 419.845 M 258 420.941 C 258 423.659, 258.442 426.155, 258.983 426.489 C 260.330 427.322, 267 425.990, 267 424.889 C 267 424.400, 265.650 424, 264 424 C 262.350 424, 261 423.550, 261 423 C 261 422.450, 262.125 422, 263.500 422 C 264.875 422, 266 421.550, 266 421 C 266 420.450, 264.875 420, 263.500 420 C 262.125 420, 261 419.550, 261 419 C 261 418.450, 262.350 418, 264 418 C 265.650 418, 267 417.550, 267 417 C 267 416.450, 264.975 416, 262.500 416 L 258 416 258 420.941 M 205 419 C 205 419.550, 205.900 420, 207 420 C 208.100 420, 209 419.550, 209 419 C 209 418.450, 208.100 418, 207 418 C 205.900 418, 205 418.450, 205 419 M 220 419.500 C 218.980 420.729, 219.049 421, 220.378 421 C 221.270 421, 222 420.325, 222 419.500 C 222 418.675, 221.830 418, 221.622 418 C 221.415 418, 220.685 418.675, 220 419.500" stroke="none" fill="#502611" fill-rule="evenodd"/></svg>